# xmcd
#
# Track frame offsets:
#	150
#	16995
#	34470
#	52755
#	69355
#	84170
#	98525
#	117930
#	137287
#
# Disc length: 2018
#
# Revision: 1
# Processed by: cddbd v1.5.1PL0 Copyright (c) Steve Scherf et al.
# Submitted via: VisiTrax 2.9.5.180 - For more info visit www.synapsa.com
# Normalized: r0:DSETVAR1
#
DISCID=6007e009
DTITLE=Various Artist - CDX 212 April 1999
DYEAR=1999
DGENRE=
TTITLE0=Jo Dee Messina - Lesson in leavin'
TTITLE1=Chris LeDoux - Life is a highway
TTITLE2=Doug Stone - Make up in love
TTITLE3=Sherrie Austin - Never been kissed
TTITLE4=Marty Stuart - Red, red wine and cheatin' songs
TTITLE5=Ricochet - Seven bridges road
TTITLE6=Faith Hill - The secret of life
TTITLE7=Shenandoah - Wooden cross
TTITLE8=Nikki Kirby - All over me
EXTD=
EXTT0=
EXTT1=
EXTT2=
EXTT3=
EXTT4=
EXTT5=
EXTT6=
EXTT7=
EXTT8=
PLAYORDER=
